<svg class="svg-icon" style="width: 1em; height: 1em;vertical-align: middle;fill: currentColor;overflow: hidden;" viewBox="0 0 1024 1024" version="1.1" xmlns="http://www.w3.org/2000/svg"><path d="M330.24 317.44c0 194.56 130.56 450.56 174.08 527.36l15.36 0c43.52-76.8 174.08-332.8 174.08-527.36 0-186.88-138.24-271.36-181.76-291.84C465.92 46.08 330.24 128 330.24 317.44z"  /><path d="M885.76 156.16c-28.16-46.08-125.44-138.24-317.44-156.16 66.56 43.52 176.64 138.24 176.64 317.44 0 192-112.64 424.96-166.4 527.36l112.64 0c25.6-102.4 74.24-107.52 122.88-176.64C849.92 622.08 1047.04 404.48 885.76 156.16z"  /><path d="M448 844.8c-53.76-102.4-166.4-335.36-166.4-527.36 0-179.2 110.08-276.48 176.64-317.44-192 17.92-289.28 110.08-317.44 156.16-161.28 248.32 38.4 465.92 71.68 512 51.2 69.12 94.72 74.24 120.32 176.64L448 844.8z"  /><path d="M332.8 896l358.4 0 0 128-358.4 0 0-128Z"  /></svg>